<svg class="prairie-dog-svg" xmlns="http://www.w3.org/2000/svg" viewBox="0 0 96 56" fill="none" aria-hidden="true">
  <path
    class="prairie-dog-sprite"
    fill="currentColor"
    d="
      M 6 30
      C 1 29, 0 23, 2 18
      C 1 13, 5 8, 11 8
      C 13 4, 18 2, 23 5
      C 26 3, 31 4, 35 8
      C 41 7, 47 9, 52 13
      C 57 12, 62 14, 66 12
      C 71 9, 76 8, 80 12
      C 85 16, 87 22, 83 27
      C 78 31, 71 32, 65 33
      C 56 36, 48 38, 42 38
      C 44 42, 45 46, 48 47
      C 51 45, 50 41, 49 38
      C 42 38, 34 37, 28 36
      C 26 39, 27 43, 26 46
      C 23 46, 24 42, 25 39
      C 22 37, 16 35, 10 32
      C 8 31, 7 30, 6 30
      Z
    "
  />
</svg>
